<?xml version="1.0" encoding="UTF-8" standalone="no"?>
<!-- Created with Inkscape (http://www.inkscape.org/) -->

<svg
   width="210mm"
   height="297mm"
   viewBox="0 0 210 297"
   version="1.1"
   id="svg5"
   sodipodi:docname="icon_logo_scaleable.svg"
   inkscape:version="1.1 (c68e22c387, 2021-05-23)"
   xmlns:inkscape="http://www.inkscape.org/namespaces/inkscape"
   xmlns:sodipodi="http://sodipodi.sourceforge.net/DTD/sodipodi-0.dtd"
   xmlns="http://www.w3.org/2000/svg"
   xmlns:svg="http://www.w3.org/2000/svg">
  <sodipodi:namedview
     id="namedview7"
     pagecolor="#ffffff"
     bordercolor="#666666"
     borderopacity="1.0"
     inkscape:pageshadow="2"
     inkscape:pageopacity="0.0"
     inkscape:pagecheckerboard="0"
     inkscape:document-units="mm"
     showgrid="false"
     inkscape:zoom="0.63428732"
     inkscape:cx="44.932319"
     inkscape:cy="562.04813"
     inkscape:window-width="1920"
     inkscape:window-height="1007"
     inkscape:window-x="0"
     inkscape:window-y="0"
     inkscape:window-maximized="1"
     inkscape:current-layer="layer1" />
  <defs
     id="defs2" />
  <g
     inkscape:label="Ebene 1"
     inkscape:groupmode="layer"
     id="layer1">
    <circle
       id="path42"
       style="fill:#000000;stroke:#000000;stroke-width:0.264583"
       cx="58.926872"
       cy="158.10081"
       r="0.05993956"
       inkscape:export-filename="/media/nsc/Daten_512GB/Projects/Web_Projects/nLearn/images/icon_logo.png"
       inkscape:export-xdpi="96"
       inkscape:export-ydpi="96" />
    <circle
       id="path44"
       style="fill:#000000;stroke:#000000;stroke-width:0.264583"
       cx="58.926872"
       cy="158.10081"
       r="0.05993956"
       inkscape:export-filename="/media/nsc/Daten_512GB/Projects/Web_Projects/nLearn/images/icon_logo.png"
       inkscape:export-xdpi="96"
       inkscape:export-ydpi="96" />
    <path
       style="fill:#000000;fill-opacity:1;fill-rule:nonzero;stroke:none;stroke-width:0.264583"
       id="path48"
       d="m 70.631393,97.512038 c 0.05671,1.756728 -0.05069,3.512022 -0.06167,5.268242 0.01421,1.43226 0.04498,2.86427 0.059,4.29656 -0.01191,1.46102 0.01622,2.9172 0.127559,4.37397 0.1413,1.88457 0.173902,3.77549 0.236934,5.66388 0.09131,3.0658 0.107596,6.13297 0.12183,9.19986 0.02233,2.98665 -0.04455,5.97348 0.08809,8.95796 0.111651,3.02027 0.85023,5.64847 2.191091,8.33741 2.027044,3.43979 5.152633,5.85762 8.380121,8.09153 4.670957,2.97907 9.91171,4.75412 15.210187,6.23208 4.639135,1.21933 9.419465,1.72383 14.205815,1.72012 2.89619,-0.005 5.74398,-0.43561 8.45034,-1.46493 2.99989,-1.29599 5.68819,-3.18783 8.46118,-4.89375 1.26528,-0.74137 2.45645,-1.59395 3.64831,-2.4451 0.12036,-0.0799 0.24071,-0.15975 0.36106,-0.23963 0,0 -3.69101,1.4486 -3.69101,1.4486 v 0 c -0.11696,0.0819 -0.23392,0.1638 -0.35089,0.24571 -1.17798,0.84801 -2.37769,1.66382 -3.62472,2.40815 -3.08845,1.94324 1.61457,-1.02112 -1.67851,1.07317 -0.29299,0.18633 -1.1896,0.7159 -0.88401,0.55103 5.21804,-2.81522 1.99094,-1.14166 0.83696,-0.56803 -2.68124,1.11495 -5.52755,1.59561 -8.43131,1.63139 -4.77642,0.057 -9.54862,-0.42029 -14.18616,-1.60533 -5.266083,-1.44438 -10.48243,-3.16681 -15.111051,-6.14475 -3.168534,-2.19565 -6.247278,-4.5708 -8.223012,-7.9598 -1.310984,-2.64941 -2.01141,-5.22527 -2.111362,-8.19605 -0.12432,-2.97843 -0.06828,-5.95951 -0.09071,-8.93987 -0.01431,-3.07221 -0.03677,-6.14467 -0.109608,-9.21613 -0.04171,-1.90284 -0.05434,-3.80904 -0.195702,-5.70762 -0.117118,-1.44674 -0.129294,-2.89555 -0.121775,-4.34664 -0.01519,-1.42993 -0.04195,-2.85965 -0.05972,-4.28955 0.0059,-1.759497 0.08587,-3.518272 0.07685,-5.278106 0,0 -3.52411,1.795624 -3.52411,1.795624 z"
       inkscape:export-filename="/media/nsc/Daten_512GB/Projects/Web_Projects/nLearn/images/icon_logo.png"
       inkscape:export-xdpi="96"
       inkscape:export-ydpi="96" />
    <path
       style="fill:#daeb3c;fill-opacity:1;stroke:#000000;stroke-width:0.264583px;stroke-linecap:butt;stroke-linejoin:miter;stroke-opacity:1"
       d="m 84.725254,149.2863 6.156508,-15.66212 12.953838,-9.01723 8.58005,10.24333 -11.04651,9.14667 z"
       id="path83"
       sodipodi:nodetypes="cccccc"
       inkscape:export-filename="/media/nsc/Daten_512GB/Projects/Web_Projects/nLearn/images/icon_logo.png"
       inkscape:export-xdpi="96"
       inkscape:export-ydpi="96" />
    <path
       style="fill:#3c47eb;fill-opacity:1;stroke:#000000;stroke-width:0.264583px;stroke-linecap:butt;stroke-linejoin:miter;stroke-opacity:1"
       d="m 103.8356,124.60695 31.51678,-25.00232 8.09647,11.19719 -31.0332,24.04846 v 0 0 0 z"
       id="path7929"
       sodipodi:nodetypes="cccccccc"
       inkscape:export-filename="/media/nsc/Daten_512GB/Projects/Web_Projects/nLearn/images/icon_logo.png"
       inkscape:export-xdpi="96"
       inkscape:export-ydpi="96" />
    <path
       style="fill:none;stroke:#000000;stroke-width:1.165;stroke-linecap:butt;stroke-linejoin:miter;stroke-miterlimit:4;stroke-dasharray:none;stroke-opacity:1"
       d="m 86.646686,147.32644 10.265198,-8.8217"
       id="path8242"
       sodipodi:nodetypes="cc"
       inkscape:export-filename="/media/nsc/Daten_512GB/Projects/Web_Projects/nLearn/images/icon_logo.png"
       inkscape:export-xdpi="96"
       inkscape:export-ydpi="96" />
    <path
       style="fill:#000000;stroke:#0e0e0e;stroke-width:0.065;stroke-linecap:butt;stroke-linejoin:miter;stroke-opacity:1;stroke-miterlimit:4;stroke-dasharray:none;fill-opacity:1"
       d="m 84.725252,149.2863 1.583643,-2.39247 0.703019,0.84509 -2.286662,1.54738"
       id="path2030"
       inkscape:export-filename="/media/nsc/Daten_512GB/Projects/Web_Projects/nLearn/images/icon_logo.png"
       inkscape:export-xdpi="96"
       inkscape:export-ydpi="96" />
    <path
       style="fill:#dde858;stroke:#000000;stroke-width:0.264583px;stroke-linecap:butt;stroke-linejoin:miter;stroke-opacity:1;fill-opacity:1"
       d="m 108.19786,125.54551 26.30951,-20.59966 3.67644,5.13839 -26.02388,19.97017 z"
       id="path2376"
       sodipodi:nodetypes="ccccc"
       inkscape:export-filename="/media/nsc/Daten_512GB/Projects/Web_Projects/nLearn/images/icon_logo.png"
       inkscape:export-xdpi="96"
       inkscape:export-ydpi="96" />
  </g>
</svg>
